<svg width="1012" height="560" viewBox="0 0 1012 560" class="keymap" xmlns="http://www.w3.org/2000/svg" xmlns:xlink="http://www.w3.org/1999/xlink">
<style>/* inherit to force styles through use tags */
svg path {
    fill: inherit;
}

/* font and background color specifications */
svg.keymap {
    font-family: SFMono-Regular,Consolas,Liberation Mono,Menlo,monospace;
    font-size: 14px;
    font-kerning: normal;
    text-rendering: optimizeLegibility;
    fill: #24292e;
}

/* default key styling */
rect.key {
    fill: #f6f8fa;
}

rect.key, rect.combo {
    stroke: #c9cccf;
    stroke-width: 1;
}

/* default key side styling, only used is draw_key_sides is set */
rect.side {
    filter: brightness(90%);
}

/* color accent for combo boxes */
rect.combo, rect.combo-separate {
    fill: #cdf;
}

/* color accent for held keys */
rect.held, rect.combo.held {
    fill: #fdd;
}

/* color accent for ghost (optional) keys */
rect.ghost, rect.combo.ghost {
    stroke-dasharray: 4, 4;
    stroke-width: 2;
}

text {
    text-anchor: middle;
    dominant-baseline: middle;
}

/* styling for layer labels */
text.label {
    font-weight: bold;
    text-anchor: start;
    stroke: white;
    stroke-width: 4;
    paint-order: stroke;
}

/* styling for optional footer */
text.footer {
    text-anchor: end;
    dominant-baseline: auto;
    stroke: white;
    stroke-width: 4;
    paint-order: stroke;
}

/* styling for combo tap, and key non-tap label text */
text.combo, text.hold, text.shifted, text.left, text.right, text.tl, text.tr, text.bl, text.br {
    font-size: 11px;
}

text.hold, text.bl, text.br {
    text-anchor: middle;
    dominant-baseline: auto;
}

text.shifted, text.tl, text.tr {
    text-anchor: middle;
    dominant-baseline: hanging;
}

text.left, text.tl, text.bl {
    text-anchor: start;
}

text.right, text.tr, text.br {
    text-anchor: end;
}

text.layer-activator {
    text-decoration: underline;
}

/* styling for hold/shifted label text in combo box */
text.combo.hold, text.combo.shifted, text.combo.left, text.combo.right {
    font-size: 8px;
}

/* lighter symbol for transparent keys */
text.trans {
    fill: #7b7e81;
}

/* styling for combo dendrons */
path.combo {
    stroke-width: 1;
    stroke: gray;
    fill: none;
}

/* Start Tabler Icons Cleanup */
/* cannot use height/width with glyphs */
.icon-tabler > path {
    fill: inherit;
    stroke: inherit;
    stroke-width: 2;
}
/* hide tabler's default box */
.icon-tabler > path[stroke="none"][fill="none"] {
    visibility: hidden;
}
/* End Tabler Icons Cleanup */

svg.keymap { fill: #d1d6db; }
rect.key { fill: #3f4750; }
rect.key, rect.combo { stroke: #60666c; }
rect.combo, rect.combo-separate { fill: #1f3d7a; }
rect.held, rect.combo.held { fill: #854747; }
text.label, text.footer { stroke: black; }
text.trans { fill: #7e8184; }
path.combo { stroke: #7f7f7f; }

rect.key.mod    { fill: rgba(255, 184, 108, 0.45); }  /* orange — modifiers */
rect.key.layer  { fill: rgba(139, 233, 253, 0.45); }  /* cyan   — layer switches */
rect.key.macro  { fill: rgba(189, 147, 249, 0.40); }  /* purple — macros */
rect.key.emoji  { fill: rgba(255, 121, 198, 0.35); }  /* pink   — emoji */
rect.key.nav    { fill: rgba(80,  250, 123, 0.35); }  /* green  — navigation/window mgmt */
rect.key.debug  { fill: rgba(80,  250, 123, 0.35); }  /* green  — debugger (layer 2) */
rect.key.media  { fill: rgba(255, 85,  85,  0.65); }  /* red    — media */
rect.key.system { fill: rgba(241, 250, 140, 0.45); }  /* yellow — system / boot */
/* Inherited (transparent) keys: darker grey than normal keys + faded
   text so it's clear they fall through to the base layer. */
rect.key.trans  { fill: #1c2128; }
.key.trans text { opacity: 0.55; }
</style>
<g transform="translate(30, 0)" class="layer-Nav">
<text x="0" y="28" class="label" id="Nav">Nav:</text>
<g transform="translate(0, 56)">
<g transform="translate(42, 49)" class="key keypos-0">
<rect rx="6" ry="6" x="-40" y="-26" width="80" height="52" class="key"/>
</g>
<g transform="translate(112, 49)" class="key keypos-1">
<rect rx="6" ry="6" x="-26" y="-26" width="52" height="52" class="key"/>
</g>
<g transform="translate(168, 35)" class="key keypos-2">
<rect rx="6" ry="6" x="-26" y="-26" width="52" height="52" class="key"/>
</g>
<g transform="translate(224, 28)" class="key macro keypos-3">
<rect rx="6" ry="6" x="-26" y="-26" width="52" height="52" class="key macro"/>
<text x="0" y="0" class="key macro tap">Ctrl+F20</text>
</g>
<g transform="translate(280, 35)" class="key macro keypos-4">
<rect rx="6" ry="6" x="-26" y="-26" width="52" height="52" class="key macro"/>
<text x="0" y="0" class="key macro tap">Cmd+F20</text>
</g>
<g transform="translate(336, 42)" class="key keypos-5">
<rect rx="6" ry="6" x="-26" y="-26" width="52" height="52" class="key"/>
</g>
<g transform="translate(392, 42)" class="key keypos-6">
<rect rx="6" ry="6" x="-26" y="-26" width="52" height="52" class="key"/>
</g>
<g transform="translate(560, 42)" class="key keypos-7">
<rect rx="6" ry="6" x="-26" y="-26" width="52" height="52" class="key"/>
</g>
<g transform="translate(616, 42)" class="key keypos-8">
<rect rx="6" ry="6" x="-26" y="-26" width="52" height="52" class="key"/>
</g>
<g transform="translate(672, 35)" class="key keypos-9">
<rect rx="6" ry="6" x="-26" y="-26" width="52" height="52" class="key"/>
</g>
<g transform="translate(728, 28)" class="key keypos-10">
<rect rx="6" ry="6" x="-26" y="-26" width="52" height="52" class="key"/>
</g>
<g transform="translate(784, 35)" class="key keypos-11">
<rect rx="6" ry="6" x="-26" y="-26" width="52" height="52" class="key"/>
</g>
<g transform="translate(840, 49)" class="key keypos-12">
<rect rx="6" ry="6" x="-26" y="-26" width="52" height="52" class="key"/>
</g>
<g transform="translate(910, 49)" class="key keypos-13">
<rect rx="6" ry="6" x="-40" y="-26" width="80" height="52" class="key"/>
</g>
<g transform="translate(42, 105)" class="key keypos-14">
<rect rx="6" ry="6" x="-40" y="-26" width="80" height="52" class="key"/>
</g>
<g transform="translate(112, 105)" class="key keypos-15">
<rect rx="6" ry="6" x="-26" y="-26" width="52" height="52" class="key"/>
</g>
<g transform="translate(168, 91)" class="key keypos-16">
<rect rx="6" ry="6" x="-26" y="-26" width="52" height="52" class="key"/>
</g>
<g transform="translate(224, 84)" class="key nav keypos-17">
<rect rx="6" ry="6" x="-26" y="-26" width="52" height="52" class="key nav"/>
<text x="0" y="0" class="key nav tap">
<tspan x="0" dy="-0.6em">Win</tspan><tspan x="0" dy="1.2em">←</tspan>
</text>
</g>
<g transform="translate(280, 91)" class="key nav keypos-18">
<rect rx="6" ry="6" x="-26" y="-26" width="52" height="52" class="key nav"/>
<text x="0" y="0" class="key nav tap">
<tspan x="0" dy="-0.6em">Win</tspan><tspan x="0" dy="1.2em">→</tspan>
</text>
</g>
<g transform="translate(336, 98)" class="key keypos-19">
<rect rx="6" ry="6" x="-26" y="-26" width="52" height="52" class="key"/>
</g>
<g transform="translate(392, 112)" class="key keypos-20">
<rect rx="6" ry="6" x="-26" y="-40" width="52" height="80" class="key"/>
</g>
<g transform="translate(560, 112)" class="key nav keypos-21">
<rect rx="6" ry="6" x="-26" y="-40" width="52" height="80" class="key nav"/>
<text x="0" y="0" class="key nav tap">PgUp</text>
</g>
<g transform="translate(616, 98)" class="key keypos-22">
<rect rx="6" ry="6" x="-26" y="-26" width="52" height="52" class="key"/>
</g>
<g transform="translate(672, 91)" class="key nav keypos-23">
<rect rx="6" ry="6" x="-26" y="-26" width="52" height="52" class="key nav"/>
<text x="0" y="0" class="key nav tap">
<tspan x="0" dy="-0.6em">Alt</tspan><tspan x="0" dy="1.2em">←</tspan>
</text>
</g>
<g transform="translate(728, 84)" class="key nav keypos-24">
<rect rx="6" ry="6" x="-26" y="-26" width="52" height="52" class="key nav"/>
<text x="0" y="0" class="key nav tap">↑</text>
</g>
<g transform="translate(784, 91)" class="key nav keypos-25">
<rect rx="6" ry="6" x="-26" y="-26" width="52" height="52" class="key nav"/>
<text x="0" y="0" class="key nav tap">
<tspan x="0" dy="-0.6em">Alt</tspan><tspan x="0" dy="1.2em">→</tspan>
</text>
</g>
<g transform="translate(840, 105)" class="key keypos-26">
<rect rx="6" ry="6" x="-26" y="-26" width="52" height="52" class="key"/>
</g>
<g transform="translate(910, 105)" class="key keypos-27">
<rect rx="6" ry="6" x="-40" y="-26" width="80" height="52" class="key"/>
</g>
<g transform="translate(42, 161)" class="key keypos-28">
<rect rx="6" ry="6" x="-40" y="-26" width="80" height="52" class="key"/>
</g>
<g transform="translate(112, 161)" class="key keypos-29">
<rect rx="6" ry="6" x="-26" y="-26" width="52" height="52" class="key"/>
</g>
<g transform="translate(168, 147)" class="key nav keypos-30">
<rect rx="6" ry="6" x="-26" y="-26" width="52" height="52" class="key nav"/>
<text x="0" y="0" class="key nav tap">
<tspan x="0" dy="-0.6em">Win</tspan><tspan x="0" dy="1.2em">Full</tspan>
</text>
</g>
<g transform="translate(224, 140)" class="key nav keypos-31">
<rect rx="6" ry="6" x="-26" y="-26" width="52" height="52" class="key nav"/>
<text x="0" y="0" class="key nav tap">
<tspan x="0" dy="-0.6em">Alt+Sft+</tspan><tspan x="0" dy="1.2em">Tab</tspan>
</text>
</g>
<g transform="translate(280, 147)" class="key nav keypos-32">
<rect rx="6" ry="6" x="-26" y="-26" width="52" height="52" class="key nav"/>
<text x="0" y="0" class="key nav tap">Alt+Tab</text>
</g>
<g transform="translate(336, 154)" class="key keypos-33">
<rect rx="6" ry="6" x="-26" y="-26" width="52" height="52" class="key"/>
</g>
<g transform="translate(616, 154)" class="key keypos-34">
<rect rx="6" ry="6" x="-26" y="-26" width="52" height="52" class="key"/>
</g>
<g transform="translate(672, 147)" class="key nav keypos-35">
<rect rx="6" ry="6" x="-26" y="-26" width="52" height="52" class="key nav"/>
<text x="0" y="0" class="key nav tap">←</text>
</g>
<g transform="translate(728, 140)" class="key nav keypos-36">
<rect rx="6" ry="6" x="-26" y="-26" width="52" height="52" class="key nav"/>
<text x="0" y="0" class="key nav tap">↓</text>
</g>
<g transform="translate(784, 147)" class="key nav keypos-37">
<rect rx="6" ry="6" x="-26" y="-26" width="52" height="52" class="key nav"/>
<text x="0" y="0" class="key nav tap">→</text>
</g>
<g transform="translate(840, 161)" class="key keypos-38">
<rect rx="6" ry="6" x="-26" y="-26" width="52" height="52" class="key"/>
</g>
<g transform="translate(910, 161)" class="key trans keypos-39">
<rect rx="6" ry="6" x="-40" y="-26" width="80" height="52" class="key trans"/>
<text x="0" y="0" class="key trans tap">-</text>
<text x="0" y="24" class="key trans hold">Cmd</text>
</g>
<g transform="translate(42, 217)" class="key layer keypos-40">
<rect rx="6" ry="6" x="-40" y="-26" width="80" height="52" class="key layer"/>
<text x="0" y="0" class="key layer tap">L4</text>
<a href="#Nav">
<text x="0" y="24" class="key layer hold layer-activator">Nav</text>
</a></g>
<g transform="translate(112, 217)" class="key macro keypos-41">
<rect rx="6" ry="6" x="-26" y="-26" width="52" height="52" class="key macro"/>
<text x="0" y="0" class="key macro tap">chz</text>
</g>
<g transform="translate(168, 203)" class="key nav keypos-42">
<rect rx="6" ry="6" x="-26" y="-26" width="52" height="52" class="key nav"/>
<text x="0" y="0" class="key nav tap">
<tspan x="0" dy="-0.6em">Win</tspan><tspan x="0" dy="1.2em">Layout</tspan>
</text>
</g>
<g transform="translate(224, 196)" class="key nav keypos-43">
<rect rx="6" ry="6" x="-26" y="-26" width="52" height="52" class="key nav"/>
<text x="0" y="0" class="key nav tap">
<tspan x="0" dy="-0.6em">Alt+Sft</tspan><tspan x="0" dy="1.2em">+=</tspan>
</text>
</g>
<g transform="translate(280, 203)" class="key nav keypos-44">
<rect rx="6" ry="6" x="-26" y="-26" width="52" height="52" class="key nav"/>
<text x="0" y="0" class="key nav tap">Alt+=</text>
</g>
<g transform="translate(336, 210)" class="key keypos-45">
<rect rx="6" ry="6" x="-26" y="-26" width="52" height="52" class="key"/>
</g>
<g transform="translate(392, 196)" class="key keypos-46">
<rect rx="6" ry="6" x="-26" y="-40" width="52" height="80" class="key"/>
</g>
<g transform="translate(560, 196)" class="key nav keypos-47">
<rect rx="6" ry="6" x="-26" y="-40" width="52" height="80" class="key nav"/>
<text x="0" y="0" class="key nav tap">PgDn</text>
</g>
<g transform="translate(616, 210)" class="key keypos-48">
<rect rx="6" ry="6" x="-26" y="-26" width="52" height="52" class="key"/>
</g>
<g transform="translate(672, 203)" class="key nav keypos-49">
<rect rx="6" ry="6" x="-26" y="-26" width="52" height="52" class="key nav"/>
<text x="0" y="0" class="key nav tap">
<tspan x="0" dy="-0.6em">Ctrl</tspan><tspan x="0" dy="1.2em">←</tspan>
</text>
</g>
<g transform="translate(728, 196)" class="key keypos-50">
<rect rx="6" ry="6" x="-26" y="-26" width="52" height="52" class="key"/>
</g>
<g transform="translate(784, 203)" class="key nav keypos-51">
<rect rx="6" ry="6" x="-26" y="-26" width="52" height="52" class="key nav"/>
<text x="0" y="0" class="key nav tap">
<tspan x="0" dy="-0.6em">Ctrl</tspan><tspan x="0" dy="1.2em">→</tspan>
</text>
</g>
<g transform="translate(840, 217)" class="key keypos-52">
<rect rx="6" ry="6" x="-26" y="-26" width="52" height="52" class="key"/>
<text x="0" y="0" class="key tap">\</text>
</g>
<g transform="translate(910, 217)" class="key trans keypos-53">
<rect rx="6" ry="6" x="-40" y="-26" width="80" height="52" class="key trans"/>
<text x="0" y="0" class="key trans tap">;</text>
<text x="0" y="24" class="key trans hold">Alt</text>
</g>
<g transform="translate(56, 273)" class="key keypos-54">
<rect rx="6" ry="6" x="-26" y="-26" width="52" height="52" class="key"/>
</g>
<g transform="translate(112, 273)" class="key trans keypos-55">
<rect rx="6" ry="6" x="-26" y="-26" width="52" height="52" class="key trans"/>
<text x="0" y="0" class="key trans tap">Alt</text>
</g>
<g transform="translate(168, 259)" class="key keypos-56">
<rect rx="6" ry="6" x="-26" y="-26" width="52" height="52" class="key"/>
</g>
<g transform="translate(224, 252)" class="key trans keypos-57">
<rect rx="6" ry="6" x="-26" y="-26" width="52" height="52" class="key trans"/>
<text x="0" y="0" class="key trans tap">Cmd</text>
</g>
<g transform="translate(280, 259)" class="key trans keypos-58">
<rect rx="6" ry="6" x="-26" y="-26" width="52" height="52" class="key trans"/>
<text x="0" y="0" class="key trans tap">Ctrl</text>
</g>
<g transform="translate(672, 259)" class="key keypos-59">
<rect rx="6" ry="6" x="-26" y="-26" width="52" height="52" class="key"/>
</g>
<g transform="translate(728, 252)" class="key keypos-60">
<rect rx="6" ry="6" x="-26" y="-26" width="52" height="52" class="key"/>
</g>
<g transform="translate(784, 259)" class="key mod keypos-61">
<rect rx="6" ry="6" x="-26" y="-26" width="52" height="52" class="key mod"/>
<text x="0" y="0" class="key mod tap">F14</text>
<text x="0" y="24" class="key mod hold">Hyper</text>
</g>
<g transform="translate(840, 273)" class="key keypos-62">
<rect rx="6" ry="6" x="-26" y="-26" width="52" height="52" class="key"/>
</g>
<g transform="translate(896, 273)" class="key keypos-63">
<rect rx="6" ry="6" x="-26" y="-26" width="52" height="52" class="key"/>
</g>
<g transform="translate(364, 308)" class="key keypos-64">
<rect rx="6" ry="6" x="-26" y="-26" width="52" height="52" class="key"/>
</g>
<g transform="translate(420, 308)" class="key keypos-65">
<rect rx="6" ry="6" x="-26" y="-26" width="52" height="52" class="key"/>
</g>
<g transform="translate(532, 308)" class="key keypos-66">
<rect rx="6" ry="6" x="-26" y="-26" width="52" height="52" class="key"/>
</g>
<g transform="translate(588, 308)" class="key keypos-67">
<rect rx="6" ry="6" x="-26" y="-26" width="52" height="52" class="key"/>
</g>
<g transform="translate(420, 364)" class="key keypos-68">
<rect rx="6" ry="6" x="-26" y="-26" width="52" height="52" class="key"/>
</g>
<g transform="translate(532, 364)" class="key nav keypos-69">
<rect rx="6" ry="6" x="-26" y="-26" width="52" height="52" class="key nav"/>
<text x="0" y="0" class="key nav tap">Home</text>
</g>
<g transform="translate(308, 392)" class="key keypos-70">
<rect rx="6" ry="6" x="-26" y="-54" width="52" height="108" class="key"/>
</g>
<g transform="translate(364, 392)" class="key keypos-71">
<rect rx="6" ry="6" x="-26" y="-54" width="52" height="108" class="key"/>
</g>
<g transform="translate(420, 420)" class="key keypos-72">
<rect rx="6" ry="6" x="-26" y="-26" width="52" height="52" class="key"/>
</g>
<g transform="translate(532, 420)" class="key nav keypos-73">
<rect rx="6" ry="6" x="-26" y="-26" width="52" height="52" class="key nav"/>
<text x="0" y="0" class="key nav tap">End</text>
</g>
<g transform="translate(588, 392)" class="key macro keypos-74">
<rect rx="6" ry="6" x="-26" y="-54" width="52" height="108" class="key macro"/>
<text x="0" y="0" class="key macro tap">
<tspan x="0" dy="-0.6em">Alt+</tspan><tspan x="0" dy="1.2em">Enter</tspan>
</text>
</g>
<g transform="translate(644, 392)" class="key keypos-75">
<rect rx="6" ry="6" x="-26" y="-54" width="52" height="108" class="key"/>
</g>
</g>
</g>
</svg>
